# xmcd CD database file
#
# Track frame offsets:
#	150
#	21777
#	41622
#
# Disc length: 820 seconds
#
# Revision: 0
# Processed by: cddbd v1.5PL3 Copyright (c) Steve Scherf et al.
# Submitted via: CDex 1.51
#
DISCID=1b033203
DTITLE=AGGRESSIVE DOGS - ONE BONDS WILL BE HARDEN
DYEAR=2001
DGENRE=ヒップ ホップ (一般)
TTITLE0=TAP OUT featuring ラッパ我リヤ
TTITLE1=CHAPTER ?
TTITLE2=TAP OUT(remix) featuring ラッパ我リヤ remix by三善 善三
EXTD=YEAR: 2001
EXTT0=
EXTT1=
EXTT2=
PLAYORDER=
